<svg width="28" height="28" viewBox="0 0 28 28" fill="none" xmlns="http://www.w3.org/2000/svg">
<rect width="28" height="28" rx="5" fill="#68A090"/>
<path d="M22.6815 12.1852C23.1413 10.8231 22.983 9.33162 22.2476 8.09297C21.1418 6.1928 18.9183 5.21552 16.7472 5.67535C15.7815 4.60164 14.3935 3.99099 12.9387 4.0001C10.7188 3.99481 8.74973 5.40486 8.06676 7.48908C6.64092 7.7772 5.41027 8.65805 4.69005 9.9061C3.5756 11.801 3.82948 14.1892 5.31819 15.8148C4.85841 17.1769 5.01663 18.6684 5.75205 19.907C6.85785 21.8072 9.08138 22.7845 11.2525 22.3246C12.2182 23.3984 13.6062 24.009 15.0609 23.9999C17.2821 24.0055 19.252 22.5945 19.9344 20.5089C21.3602 20.2207 22.5909 19.3399 23.3111 18.0918C24.4244 16.197 24.1699 13.8099 22.6815 12.1852ZM15.0627 22.6922C14.1742 22.6933 13.3136 22.3864 12.6312 21.8248C12.6619 21.8084 12.7158 21.779 12.751 21.7578L16.7868 19.4575C16.993 19.3417 17.12 19.125 17.1185 18.8909V13.2769L18.8244 14.2489C18.8426 14.2577 18.8551 14.275 18.8575 14.295V18.9445C18.8551 21.0116 17.1581 22.6875 15.0627 22.6922ZM6.90106 19.2529C6.45588 18.494 6.29556 17.605 6.44783 16.7412C6.47793 16.7588 6.53007 16.7906 6.56762 16.8117L10.6035 19.112C10.8082 19.2302 11.0618 19.2302 11.2665 19.112L16.1939 16.3049V18.2485C16.1951 18.2688 16.1858 18.2879 16.1694 18.3003L12.0895 20.6244C10.273 21.657 7.95174 21.0434 6.90106 19.2529ZM5.83936 10.5594C6.28245 9.79967 6.98241 9.21784 7.81645 8.91618C7.81645 8.95058 7.81437 9.01115 7.81437 9.05349V13.6538C7.81288 13.8878 7.93952 14.1042 8.14572 14.2201L13.0731 17.0269L11.3672 17.9986C11.3502 18.0098 11.3284 18.0116 11.3097 18.0039L7.22943 15.6777C5.41593 14.6411 4.79404 12.3519 5.83936 10.5594ZM19.8551 13.7776L14.9274 10.9704L16.6334 9.99901C16.6504 9.98784 16.6721 9.98607 16.6909 9.99401L20.7711 12.3181C22.5882 13.3536 23.2104 15.6466 22.1609 17.4391C21.7169 18.1977 21.0176 18.7789 20.1841 19.0818V14.3438C20.1862 14.1101 20.0604 13.8937 19.8551 13.7776ZM21.553 11.2562C21.5229 11.238 21.4708 11.2068 21.4332 11.1856L17.3971 8.88531C17.1924 8.76742 16.9391 8.76742 16.7341 8.88531L11.8067 11.6925V9.74881C11.8055 9.72852 11.8147 9.70941 11.8311 9.69707L15.9111 7.37471C17.7288 6.34069 20.0518 6.95604 21.0998 8.74948C21.5426 9.50743 21.7029 10.3942 21.553 11.2562ZM10.8791 14.7208L9.17286 13.7488C9.15468 13.74 9.14216 13.7226 9.13978 13.7026V9.05349C9.14127 6.98339 10.843 5.30608 12.9414 5.30755C13.8288 5.30814 14.6879 5.61508 15.3696 6.17516C15.339 6.19163 15.2853 6.22103 15.2499 6.24219L11.214 8.5425C11.0078 8.65805 10.8809 8.87473 10.8824 9.10876L10.8791 14.7208ZM11.8058 12.7494L14.0004 11.4987L16.195 12.7486V15.2491L14.0004 16.4989L11.8058 15.2491V12.7494Z" fill="white"/>
</svg>
